# xmcd
#
# Track frame offsets: 
#        150
#        12660
#        24185
#        36772
#        49635
#        61992
#        71895
#        82752
#        97517
#        111175
#        126787
#        136552
#        151240
#        164285
#        176812
#        187517
#        206945
#        219542
#
# Disc length: 3071 seconds
#
# Revision: 0
# Processed by: cddbd v1.4PL0 Copyright (c) Steve Scherf et al.
# Submitted via: ExactAudioCopy v0.90b2
#
DISCID=e30bfd12
DTITLE=James Brown - The Soul Machine
DYEAR=1995
DGENRE=Soul
TTITLE0=Please, Please, Please
TTITLE1=Try Me
TTITLE2=I Want You So Bad
TTITLE3=Think
TTITLE4=You've Got The Power
TTITLE5=This Old Heart
TTITLE6=Bewildered
TTITLE7=I Don't Mind
TTITLE8=Baby, You're Right
TTITLE9=Lost Someone
TTITLE10=I'll Go Crazy
TTITLE11=Shout and Shimmy
TTITLE12=Mashed Potatoes U.S.A.
TTITLE13=It's A man's Man's Man's World
TTITLE14=Prisoner Of Love
TTITLE15=Papa's Got A Brand New Bag
TTITLE16=I Got You
TTITLE17=Do The Mashed Potato
EXTD=
EXTT0=
EXTT1=
EXTT2=
EXTT3=
EXTT4=
EXTT5=
EXTT6=
EXTT7=
EXTT8=
EXTT9=
EXTT10=
EXTT11=
EXTT12=
EXTT13=
EXTT14=
EXTT15=
EXTT16=
EXTT17=
PLAYORDER=
